<?xml version="1.0" encoding="UTF-8"?>
<svg width="128" height="128" viewBox="0 0 128 128" xmlns="http://www.w3.org/2000/svg">
  <defs>
    <linearGradient id="g128" x1="0%" y1="0%" x2="100%" y2="100%">
      <stop offset="0%" style="stop-color:#667eea"/>
      <stop offset="100%" style="stop-color:#764ba2"/>
    </linearGradient>
    <linearGradient id="shine" x1="30%" y1="20%" x2="70%" y2="80%">
      <stop offset="0%" style="stop-color:rgba(255,255,255,0.25)"/>
      <stop offset="100%" style="stop-color:rgba(255,255,255,0)"/>
    </linearGradient>
  </defs>
  <!-- Rounded square background -->
  <rect width="128" height="128" rx="24" fill="url(#g128)"/>
  <!-- Subtle shine overlay -->
  <rect width="128" height="128" rx="24" fill="url(#shine)"/>
  <!-- Sparkle star - main body -->
  <path d="M64 18l5.4 12.2 12.6 1.8-9.2 9 2.1 13L64 45.5l-10.9 5.8 2.1-13-9.2-9 12.6-1.8L64 18z" fill="white"/>
  <!-- Small sparkle - top right -->
  <path d="M92 38l2.2 4.8 4.8.7-3.5 3.4.8 5.1-4.3-2.2-4.3 2.2.8-5.1-3.5-3.4 4.8-.7L92 38z" fill="white" opacity="0.7"/>
  <!-- Small sparkle - bottom left -->
  <path d="M36 88l1.8 3.8 3.8.5-2.8 2.7.6 4-3.4-1.8-3.4 1.8.6-4-2.8-2.7 3.8-.5L36 88z" fill="white" opacity="0.6"/>
</svg>
